<mxfile host="65bd71144e">
    <diagram id="G-sLq0d55iG927SIHQj-" name="Page-1">
        <mxGraphModel dx="1003" dy="795" grid="1" gridSize="10" guides="1" tooltips="1" connect="1" arrows="1" fold="1" page="1" pageScale="1" pageWidth="850" pageHeight="1100" math="0" shadow="0">
            <root>
                <mxCell id="0"/>
                <mxCell id="1" parent="0"/>
                <mxCell id="14" value="Full Transaction Simulation" style="rounded=1;whiteSpace=wrap;html=1;fillColor=#e1d5e7;strokeColor=#9673a6;verticalAlign=top;fontSize=16;arcSize=4;" parent="1" vertex="1">
                    <mxGeometry x="90" y="240" width="510" height="260" as="geometry"/>
                </mxCell>
                <mxCell id="11" value="AXI to AIB converter&lt;div&gt;Leader&lt;/div&gt;" style="rounded=1;whiteSpace=wrap;html=1;fillColor=#fff2cc;strokeColor=#d6b656;verticalAlign=top;fontSize=16;" parent="1" vertex="1">
                    <mxGeometry x="250" y="300" width="320" height="160" as="geometry"/>
                </mxCell>
                <mxCell id="4" value="" style="edgeStyle=none;html=1;" parent="1" source="2" target="3" edge="1">
                    <mxGeometry relative="1" as="geometry"/>
                </mxCell>
                <mxCell id="2" value="AXI&lt;div&gt;Leader&lt;/div&gt;" style="rounded=1;whiteSpace=wrap;html=1;fillColor=#f8cecc;strokeColor=#b85450;horizontal=1;verticalAlign=top;fontSize=16;" parent="1" vertex="1">
                    <mxGeometry x="270" y="360" width="120" height="80" as="geometry"/>
                </mxCell>
                <mxCell id="6" value="" style="edgeStyle=none;html=1;" parent="1" source="3" target="5" edge="1">
                    <mxGeometry relative="1" as="geometry"/>
                </mxCell>
                <mxCell id="3" value="AIB&lt;div&gt;Leader&lt;/div&gt;" style="rounded=1;whiteSpace=wrap;html=1;fillColor=#e1d5e7;strokeColor=#9673a6;horizontal=1;verticalAlign=top;fontSize=16;" parent="1" vertex="1">
                    <mxGeometry x="430" y="360" width="120" height="80" as="geometry"/>
                </mxCell>
                <mxCell id="5" value="EMIB" style="rounded=1;whiteSpace=wrap;html=1;fillColor=#dae8fc;strokeColor=#6c8ebf;horizontal=1;verticalAlign=top;fontSize=16;" parent="1" vertex="1">
                    <mxGeometry x="640" y="300" width="60" height="200" as="geometry"/>
                </mxCell>
                <mxCell id="16" style="edgeStyle=none;html=1;" edge="1" parent="1" source="15" target="11">
                    <mxGeometry relative="1" as="geometry"/>
                </mxCell>
                <mxCell id="15" value="AXI&lt;div&gt;Crossbar&lt;/div&gt;" style="rounded=1;whiteSpace=wrap;html=1;fillColor=#fff2cc;strokeColor=#d6b656;verticalAlign=top;fontSize=16;" vertex="1" parent="1">
                    <mxGeometry x="120" y="280" width="80" height="200" as="geometry"/>
                </mxCell>
            </root>
        </mxGraphModel>
    </diagram>
</mxfile>